<svg width="800" height="1200" viewBox="0 0 800 1200" fill="none" xmlns="http://www.w3.org/2000/svg">
  <defs>
    <linearGradient id="paint0_linear" x1="0" y1="0" x2="800" y2="1200" gradientUnits="userSpaceOnUse">
      <stop stop-color="#18181B"/>
      <stop offset="1" stop-color="#27272A"/>
    </linearGradient>
    <linearGradient id="paint1_linear" x1="400" y1="200" x2="400" y2="1000" gradientUnits="userSpaceOnUse">
      <stop stop-color="#3F3F46" stop-opacity="0.2"/>
      <stop offset="1" stop-color="#3F3F46" stop-opacity="0"/>
    </linearGradient>
    <filter id="blur1" x="-50%" y="-50%" width="200%" height="200%">
      <feGaussianBlur in="SourceGraphic" stdDeviation="40" />
    </filter>
  </defs>
  
  <rect width="800" height="1200" fill="url(#paint0_linear)"/>
  
  <!-- Glowing Background Orbs -->
  <circle cx="200" cy="300" r="150" fill="#3B82F6" fill-opacity="0.1" filter="url(#blur1)"/>
  <circle cx="600" cy="900" r="200" fill="#8B5CF6" fill-opacity="0.1" filter="url(#blur1)"/>
  
  <!-- Abstract Geometric Patterns -->
  <g opacity="0.4">
    <path d="M0 200L800 600V605L0 205V200Z" fill="white" fill-opacity="0.05"/>
    <path d="M0 400L800 800V805L0 405V400Z" fill="white" fill-opacity="0.05"/>
    <path d="M0 600L800 1000V1005L0 605V600Z" fill="white" fill-opacity="0.05"/>
  </g>
  
  <!-- Floating Cubes/Elements (Schematic style) -->
  <rect x="350" y="450" width="100" height="100" rx="20" stroke="white" stroke-opacity="0.2" stroke-width="2" fill="url(#paint1_linear)"/>
  <rect x="375" y="475" width="50" height="50" rx="10" stroke="white" stroke-opacity="0.4" stroke-width="1" fill="white" fill-opacity="0.05"/>
  
  <rect x="550" y="300" width="60" height="60" rx="12" stroke="white" stroke-opacity="0.1" stroke-width="2" fill="url(#paint1_linear)"/>
  <rect x="150" y="800" width="80" height="80" rx="16" stroke="white" stroke-opacity="0.1" stroke-width="2" fill="url(#paint1_linear)"/>
  
  <!-- Connecting Lines -->
  <path d="M400 550V700M400 700L550 800M400 700L250 800" stroke="white" stroke-opacity="0.1" stroke-dasharray="4 4"/>
  
  <!-- Floating Points -->
  <circle cx="400" cy="550" r="3" fill="white" fill-opacity="0.3"/>
  <circle cx="550" cy="800" r="3" fill="white" fill-opacity="0.3"/>
  <circle cx="250" cy="800" r="3" fill="white" fill-opacity="0.3"/>
  
  <!-- Learn Bot Text Mark (Subtle) -->
  <text x="400" y="1100" text-anchor="middle" font-family="Inter, sans-serif" font-weight="600" font-size="24" fill="white" fill-opacity="0.1">LEARN BOT</text>
</svg>
